<?xml version="1.0" encoding="utf-8"?>
<!-- Svg Vector Icons : http://www.onlinewebfonts.com/icon -->
<!DOCTYPE svg PUBLIC "-//W3C//DTD SVG 1.1//EN" "http://www.w3.org/Graphics/SVG/1.1/DTD/svg11.dtd">
<svg version="1.1" xmlns="http://www.w3.org/2000/svg" xmlns:xlink="http://www.w3.org/1999/xlink" x="0px" y="0px" style="color:white" viewBox="0 0 1000 1000" enable-background="new 0 0 1000 1000" xml:space="preserve">
<metadata> Svg Vector Icons : http://www.onlinewebfonts.com/icon </metadata>
<g><g><path d="M918.7,68.1H81.3c-39.3,0-71.3,32-71.3,71.3v539.6c0,39.3,32,71.4,71.3,71.4h400v144.2H353.5c-10.3,0-18.6,8.3-18.6,18.6c0,10.3,8.3,18.6,18.6,18.6h290.7c10.3,0,18.6-8.3,18.6-18.6c0-10.3-8.3-18.6-18.6-18.6H518.6V750.4h400.1c39.3,0,71.3-32,71.3-71.4V139.5C990,100.2,958,68.1,918.7,68.1z M952.8,679.1c0,18.8-15.3,34.1-34.1,34.1H81.3c-18.8,0-34.1-15.3-34.1-34.1V139.5c0-18.8,15.3-34.1,34.1-34.1h837.3c18.8,0,34.1,15.3,34.1,34.1V679.1z"/></g><g></g><g></g><g></g><g></g><g></g><g></g><g></g><g></g><g></g><g></g><g></g><g></g><g></g><g></g><g></g></g>
</svg>